<mxfile host="65bd71144e">
    <diagram id="HzBj-9hiF-9H0XjpQsEY" name="Page-1">
        <mxGraphModel dx="1130" dy="599" grid="1" gridSize="10" guides="1" tooltips="1" connect="1" arrows="1" fold="1" page="1" pageScale="1" pageWidth="850" pageHeight="1100" math="0" shadow="0">
            <root>
                <mxCell id="0"/>
                <mxCell id="1" parent="0"/>
                <mxCell id="2" value="App" style="rounded=0;whiteSpace=wrap;html=1;" parent="1" vertex="1">
                    <mxGeometry x="330" y="110" width="120" height="60" as="geometry"/>
                </mxCell>
                <mxCell id="3" value="" style="endArrow=none;html=1;entryX=0.5;entryY=1;entryDx=0;entryDy=0;" parent="1" target="2" edge="1">
                    <mxGeometry width="50" height="50" relative="1" as="geometry">
                        <mxPoint x="390" y="260" as="sourcePoint"/>
                        <mxPoint x="400" y="210" as="targetPoint"/>
                    </mxGeometry>
                </mxCell>
                <mxCell id="5" value="" style="edgeStyle=none;html=1;" parent="1" source="4" target="2" edge="1">
                    <mxGeometry relative="1" as="geometry"/>
                </mxCell>
                <mxCell id="4" value="Landing Page" style="rounded=0;whiteSpace=wrap;html=1;" parent="1" vertex="1">
                    <mxGeometry x="330" y="230" width="120" height="60" as="geometry"/>
                </mxCell>
                <mxCell id="6" value="" style="endArrow=none;html=1;" parent="1" edge="1">
                    <mxGeometry width="50" height="50" relative="1" as="geometry">
                        <mxPoint x="240" y="360" as="sourcePoint"/>
                        <mxPoint x="390" y="290" as="targetPoint"/>
                    </mxGeometry>
                </mxCell>
                <mxCell id="8" value="" style="endArrow=none;html=1;" parent="1" edge="1">
                    <mxGeometry width="50" height="50" relative="1" as="geometry">
                        <mxPoint x="390" y="290" as="sourcePoint"/>
                        <mxPoint x="540" y="360" as="targetPoint"/>
                    </mxGeometry>
                </mxCell>
                <mxCell id="9" value="" style="endArrow=none;html=1;" parent="1" edge="1">
                    <mxGeometry width="50" height="50" relative="1" as="geometry">
                        <mxPoint x="389.5" y="360" as="sourcePoint"/>
                        <mxPoint x="389.5" y="290" as="targetPoint"/>
                    </mxGeometry>
                </mxCell>
                <object label="&lt;b&gt;&lt;font style=&quot;font-size: 12px;&quot;&gt;VehicleForm&lt;br&gt;(index file)&lt;br&gt;&lt;/font&gt;&lt;/b&gt;" id="10">
                    <mxCell style="rounded=0;whiteSpace=wrap;html=1;" parent="1" vertex="1">
                        <mxGeometry x="180" y="360" width="120" height="60" as="geometry"/>
                    </mxCell>
                </object>
                <mxCell id="11" value="&lt;b&gt;RouteForm&lt;/b&gt;" style="rounded=0;whiteSpace=wrap;html=1;" parent="1" vertex="1">
                    <mxGeometry x="330" y="360" width="120" height="60" as="geometry"/>
                </mxCell>
                <mxCell id="12" value="&lt;b&gt;DataList&lt;/b&gt;" style="rounded=0;whiteSpace=wrap;html=1;" parent="1" vertex="1">
                    <mxGeometry x="480" y="360" width="320" height="60" as="geometry"/>
                </mxCell>
                <mxCell id="13" value="" style="endArrow=none;html=1;fontSize=12;" parent="1" edge="1">
                    <mxGeometry width="50" height="50" relative="1" as="geometry">
                        <mxPoint x="570" y="480" as="sourcePoint"/>
                        <mxPoint x="570" y="420" as="targetPoint"/>
                    </mxGeometry>
                </mxCell>
                <mxCell id="15" value="" style="endArrow=none;html=1;fontSize=12;" parent="1" edge="1">
                    <mxGeometry width="50" height="50" relative="1" as="geometry">
                        <mxPoint x="699.9999999999999" y="480" as="sourcePoint"/>
                        <mxPoint x="699.9999999999999" y="420" as="targetPoint"/>
                    </mxGeometry>
                </mxCell>
                <mxCell id="16" value="SearchForm" style="ellipse;whiteSpace=wrap;html=1;fontSize=12;" parent="1" vertex="1">
                    <mxGeometry x="510" y="480" width="120" height="80" as="geometry"/>
                </mxCell>
                <mxCell id="17" value="VehicleSelect" style="ellipse;whiteSpace=wrap;html=1;fontSize=12;" parent="1" vertex="1">
                    <mxGeometry x="640" y="480" width="120" height="80" as="geometry"/>
                </mxCell>
                <mxCell id="18" value="" style="endArrow=none;html=1;fontSize=12;" edge="1" parent="1">
                    <mxGeometry width="50" height="50" relative="1" as="geometry">
                        <mxPoint x="239.5" y="480" as="sourcePoint"/>
                        <mxPoint x="239.5" y="420" as="targetPoint"/>
                    </mxGeometry>
                </mxCell>
                <mxCell id="19" value="InputField" style="rounded=1;whiteSpace=wrap;html=1;" vertex="1" parent="1">
                    <mxGeometry x="140" y="480" width="100" height="50" as="geometry"/>
                </mxCell>
                <mxCell id="20" value="VehicleSelect" style="rounded=1;whiteSpace=wrap;html=1;" vertex="1" parent="1">
                    <mxGeometry x="240" y="480" width="100" height="50" as="geometry"/>
                </mxCell>
            </root>
        </mxGraphModel>
    </diagram>
</mxfile>